# xmcd
#
# Track frame offsets:
#	150
#	8999
#	19761
#	31179
#	40721
#	50489
#	63340
#	71083
#	82464
#	92974
#	102142
#	114765
#	124308
#	136083
#	149769
#	158787
#	171633
#	182063
#	193281
#	202149
#
# Disc length: 2820 seconds
#
# Revision: 0
# Processed by: cddbd v1.5.2PL0 Copyright (c) Steve Scherf et al.
# Submitted via: audiograbber 1.83.01
#
DISCID=2b0b0214
DTITLE=Rock n Roll Cowboys - CD5
DYEAR=2014
DGENRE=Country
TTITLE0=Johnny Cash - Kathy Tao
TTITLE1=Guy Mitchell - Crazy with Love
TTITLE2=Sonny James - Let´s Play Love
TTITLE3=Webb Pierce - You`ll Come Back
TTITLE4=Martin Robbins - Stairway of Love
TTITLE5=Hank Williams - Pan American
TTITLE6=Bob Luman - All Night Long
TTITLE7=Johnny Duncan and His Blue Grass Boys - Last Train to San Fernando
TTITLE8=Red Foley - Plantation Boogie
TTITLE9=Johnny Horton - S. S. Lureline
TTITLE10=Hank Snow - The gulden Bucket
TTITLE11=Marvin Rainwater - Maanin the Blues
TTITLE12=Ken Patrick - Night Train
TTITLE13=Sonny Miller - Richmond, Chicago, Mexico and Home
TTITLE14=Don Gibson - My Hands are Tired
TTITLE15=Johnny Cash - Folsam Prison Blues
TTITLE16=Tennessee Ernie Ford - Catfish Boogie
TTITLE17=Hank Thompson - This Train
TTITLE18=Johnny Horton - Sal`s got a sugarlip
TTITLE19=Bob Luman - Everytime the world goes round
EXTD=
EXTT0=
EXTT1=
EXTT2=
EXTT3=
EXTT4=
EXTT5=
EXTT6=
EXTT7=
EXTT8=
EXTT9=
EXTT10=
EXTT11=
EXTT12=
EXTT13=
EXTT14=
EXTT15=
EXTT16=
EXTT17=
EXTT18=
EXTT19=
PLAYORDER=
